HIERARCHY
ROOT Hips
{
	OFFSET 0.000000 88.474243 0.000000
	CHANNELS 6 Xposition Yposition Zposition Zrotation Yrotation Xrotation 
	JOINT Hips_Spine
	{
		OFFSET 0.000000 0.000000 0.000000
		CHANNELS 3 Zrotation Yrotation Xrotation
		JOINT Spine
		{
			OFFSET 0.005100 8.711998 -0.691000
			CHANNELS 3 Zrotation Yrotation Xrotation
			JOINT Spine1
			{
				OFFSET -0.009200 8.660301 -1.275000
				CHANNELS 3 Zrotation Yrotation Xrotation
				JOINT Spine2
				{
					OFFSET 0.006300 9.852501 -1.857000
					CHANNELS 3 Zrotation Yrotation Xrotation
					JOINT Spine2_Neck
					{
						OFFSET 0.000000 0.000000 0.000000
						CHANNELS 3 Zrotation Yrotation Xrotation
						JOINT Neck
						{
							OFFSET 0.016300 11.420799 -0.263300
							CHANNELS 3 Zrotation Yrotation Xrotation
							End Site #name: Head
							{
								OFFSET -0.019200 9.262405 2.362500
							}
						}
					}
					JOINT Spine2_LeftShoulder
					{
						OFFSET 0.000000 0.000000 0.000000
						CHANNELS 3 Zrotation Yrotation Xrotation
						JOINT LeftShoulder
						{
							OFFSET 5.616900 6.732201 -0.345700
							CHANNELS 3 Zrotation Yrotation Xrotation
							JOINT LeftArm
							{
								OFFSET 10.664888 -0.183372 -2.440700
								CHANNELS 3 Zrotation Yrotation Xrotation
								JOINT LeftForeArm
								{
									OFFSET 27.459126 0.000000 0.000000
									CHANNELS 3 Zrotation Yrotation Xrotation
									End Site #name: LeftHand
									{
										OFFSET 21.306858 0.000000 0.000000
									}
								}
							}
						}
					}
					JOINT Spine2_RightShoulder
					{
						OFFSET 0.000000 0.000000 0.000000
						CHANNELS 3 Zrotation Yrotation Xrotation
						JOINT RightShoulder
						{
							OFFSET -5.580300 6.737503 -0.344400
							CHANNELS 3 Zrotation Yrotation Xrotation
							JOINT RightArm
							{
								OFFSET -10.679335 -0.188484 -2.383900
								CHANNELS 3 Zrotation Yrotation Xrotation
								JOINT RightForeArm
								{
									OFFSET -27.503529 0.000000 0.000000
									CHANNELS 3 Zrotation Yrotation Xrotation
									End Site #name: RightHand
									{
										OFFSET -21.306808 0.000000 0.000000
									}
								}
							}
						}
					}
				}
			}
		}
	}
	JOINT Hips_LeftUpLeg
	{
		OFFSET 0.000000 0.000000 0.000000
		CHANNELS 3 Zrotation Yrotation Xrotation
		JOINT LeftUpLeg
		{
			OFFSET 6.857700 -6.739601 0.312100
			CHANNELS 3 Zrotation Yrotation Xrotation
			JOINT LeftLeg
			{
				OFFSET -0.367590 -34.731552 -4.572400
				CHANNELS 3 Zrotation Yrotation Xrotation
				End Site #name: LeftFoot
				{
					OFFSET 0.367590 -34.656704 -6.067400
				}
			}
		}
	}
	JOINT Hips_RightUpLeg
	{
		OFFSET 0.000000 0.000000 0.000000
		CHANNELS 3 Zrotation Yrotation Xrotation
		JOINT RightUpLeg
		{
			OFFSET -6.876100 -6.733299 0.301000
			CHANNELS 3 Zrotation Yrotation Xrotation
			JOINT RightLeg
			{
				OFFSET 0.347353 -34.795158 -4.515900
				CHANNELS 3 Zrotation Yrotation Xrotation
				End Site #name: RightFoot
				{
					OFFSET -0.347353 -34.589367 -6.070300
				}
			}
		}
	}
}
MOTION
Frames: 9
Frame Time: 0.041667
-4.285919 0.337267 -1.951358 -2.645381 2.358565 -7.680660 0.000000 0.000000 0.000000 7.673809 0.644885 -2.329105 4.299593 -0.499191 -0.647775 0.000000 0.000000 0.000000 3.884196 -0.322824 -0.763308 3.610801 -2.081324 2.023355 3.693686 -0.695935 -0.616879 -23.894792 -0.071454 1.102025 -46.040171 9.145589 27.923266 -1.187249 -29.488637 1.526873 3.570210 -0.123704 -0.297348 13.749806 10.582557 2.780687 59.593778 5.035445 -4.390826 0.825869 35.039972 -0.275133 -0.000000 -0.000000 -0.000000 2.887650 22.367191 -7.041045 4.468568 11.279410 23.214500 0.000000 -0.000000 0.000000 1.463488 2.078056 -12.907737 3.927554 -8.754093 4.503377 
-4.870401 0.262000 -1.999730 -3.026375 1.680821 -7.577618 0.000000 0.000000 0.000000 8.150419 0.404660 -1.931078 4.547463 -0.557836 -0.547249 0.000000 0.000000 0.000000 4.055430 -0.347614 -0.647389 3.632680 -2.044745 2.130732 3.911655 -0.740889 -0.475416 -23.569495 0.064797 1.030539 -46.520469 9.614764 27.701859 -1.237726 -30.553141 1.489794 3.758460 -0.154390 -0.227976 14.130995 10.965137 2.882188 59.334386 4.762493 -4.120879 0.826877 35.442365 -0.278148 -0.000000 -0.000000 -0.000000 4.704022 21.939195 -7.383969 3.738290 11.239678 24.630183 0.000000 -0.000000 0.000000 2.628728 2.314404 -13.396575 3.976896 -8.651064 5.533507 
-5.401300 0.172718 -2.049165 -3.263020 0.645705 -7.404893 0.000000 0.000000 0.000000 8.557847 0.187307 -1.419077 4.780973 -0.613542 -0.391858 0.000000 0.000000 0.000000 4.210186 -0.366858 -0.495907 3.642889 -2.014171 2.246380 4.113129 -0.776663 -0.272451 -23.262806 0.168382 0.928944 -46.915440 9.948526 27.272785 -1.288044 -31.577962 1.446060 3.931784 -0.186432 -0.098229 14.508481 11.328575 2.990732 59.071395 4.674257 -3.863259 0.830468 35.852245 -0.282321 -0.000000 -0.000000 -0.000000 6.975273 21.099239 -7.641409 2.084741 10.588414 26.523500 0.000000 -0.000000 0.000000 3.704400 2.793676 -13.843802 4.009539 -8.587898 6.636539 
-5.861628 0.086868 -2.094019 -3.376821 -0.496288 -7.199249 0.000000 -0.000000 0.000000 8.860248 -0.081255 -0.820201 4.938521 -0.667137 -0.179696 0.000000 0.000000 0.000000 4.347079 -0.392555 -0.315079 3.638580 -1.991606 2.349921 4.300724 -0.815241 0.042067 -23.018639 0.280338 0.821731 -47.266388 10.168327 26.654045 -1.323103 -32.374746 1.418369 4.085888 -0.222603 0.112309 14.782763 11.602027 3.090668 58.890015 4.727530 -3.717448 0.841941 36.387789 -0.282582 -0.000000 -0.000000 -0.000000 9.336400 19.614871 -7.806246 0.337931 9.671879 31.814341 0.000000 -0.000000 0.000000 4.669502 3.491432 -14.207228 4.027013 -8.578776 7.698527 
-6.234920 0.014739 -2.129423 -3.365081 -1.667684 -7.023389 0.000000 -0.000000 0.000000 9.106684 -0.406171 -0.189029 5.056301 -0.733126 0.053136 0.000000 0.000000 0.000000 4.464954 -0.425951 -0.102090 3.623827 -1.960761 2.432319 4.460605 -0.862230 0.375320 -22.828955 0.360492 0.722835 -47.540470 10.256928 26.060154 -1.356116 -33.013129 1.401557 4.218757 -0.269586 0.332015 14.910094 11.760081 3.157496 58.737089 4.938654 -3.662497 0.855695 37.075360 -0.278384 -0.000000 -0.000000 -0.000000 10.871973 17.726117 -8.607145 -1.140252 7.871549 38.116790 0.000000 -0.000000 0.000000 5.419904 4.287241 -14.457213 4.072011 -8.593697 8.620502 
-6.512919 -0.049727 -2.164069 -3.237247 -2.949613 -6.883580 0.000000 -0.000000 0.000000 9.280924 -0.782414 0.418249 5.161672 -0.814224 0.300193 0.000000 0.000000 0.000000 4.564870 -0.470442 0.085095 3.603975 -1.932514 2.506199 4.597852 -0.919862 0.675744 -22.682068 0.442782 0.610634 -47.743040 10.129513 25.648054 -1.387905 -33.592576 1.382739 4.339169 -0.334752 0.515851 14.945519 11.882489 3.198012 58.608117 5.273681 -3.650275 0.870407 37.906769 -0.276401 -0.000000 -0.000000 -0.000000 12.855481 16.388365 -9.397340 -1.428205 6.470557 44.795798 0.000000 -0.000000 0.000000 5.913451 5.200349 -14.696420 4.118320 -8.574453 9.598401 
-6.688232 -0.104693 -2.195112 -3.004932 -4.476456 -6.733301 0.000000 -0.000000 0.000000 9.387951 -1.168619 0.943577 5.257965 -0.894597 0.555435 0.000000 0.000000 0.000000 4.648362 -0.516183 0.215730 3.579853 -1.901618 2.573084 4.699236 -0.986211 0.872782 -22.576052 0.518667 0.499711 -47.873335 9.805234 25.484972 -1.415582 -34.094768 1.358801 4.456007 -0.409733 0.671883 14.905007 12.005624 3.227456 58.515495 5.696815 -3.665609 0.884075 38.804321 -0.269143 -0.000000 -0.000000 -0.000000 12.703080 17.355646 -11.041666 -0.752816 5.438684 51.734036 0.000000 -0.000000 0.000000 6.132319 5.985453 -14.959529 4.198070 -8.487097 10.565143 
-6.754700 -0.149653 -2.212011 -2.712886 -6.309661 -6.569645 0.000000 -0.000000 0.000000 9.471828 -1.517978 1.357423 5.351053 -0.967985 0.767849 0.000000 0.000000 0.000000 4.725040 -0.571856 0.381286 3.548418 -1.855781 2.640234 4.793766 -1.047736 1.046384 -22.507485 0.570961 0.384515 -47.941308 9.393981 25.575002 -1.425496 -34.436802 1.362485 4.559082 -0.477706 0.809017 14.797017 12.153466 3.243893 58.477832 6.138684 -3.711204 0.897665 39.678762 -0.264512 -0.000000 -0.000000 -0.000000 12.205992 17.994536 -12.919107 -0.484456 4.315887 56.933486 0.000000 -0.000000 0.000000 6.164942 6.720553 -15.330284 4.296615 -8.403259 11.597734 
-6.717973 -0.199045 -2.227802 -2.372880 -8.509444 -6.389372 0.000000 -0.000000 0.000000 9.531401 -1.804099 1.702653 5.437820 -1.032261 0.952389 0.000000 0.000000 0.000000 4.793507 -0.623883 0.517285 3.504065 -1.786498 2.699971 4.877986 -1.097737 1.191050 -22.475443 0.591267 0.266695 -47.995453 9.032063 25.752495 -1.433701 -34.568454 1.376067 4.649684 -0.545325 0.926029 14.601428 12.331191 3.236499 58.517413 6.578157 -3.716877 0.910956 40.499407 -0.260274 -0.000000 -0.000000 -0.000000 11.529863 18.386223 -14.670777 -0.680819 3.483966 60.940799 0.000000 -0.000000 0.000000 6.037934 7.340110 -15.788047 4.421229 -8.323279 12.619152 
